<svg xmlns="http://www.w3.org/2000/svg" width="204.63" height="35" viewBox="0 0 204.63 35"><rect class="svg__rect" x="0" y="0" width="55.46" height="35" fill="#31C4F3"/><rect class="svg__rect" x="53.46" y="0" width="151.17" height="35" fill="#389AD5"/><path class="svg__text" d="M13.81 19.71L13.81 19.71L15.24 19.71Q15.24 20.28 15.61 20.63Q15.99 20.98 16.63 20.98L16.63 20.98Q17.29 20.98 17.67 20.63Q18.06 20.28 18.06 19.61L18.06 19.61Q18.06 18.94 17.66 18.57Q17.26 18.21 16.47 18.21L16.47 18.21L15.64 18.21L15.64 17.08L16.50 17.08Q17.16 17.08 17.54 16.74Q17.93 16.41 17.93 15.78L17.93 15.78Q17.93 15.17 17.61 14.83Q17.29 14.49 16.63 14.49L16.63 14.49Q16.06 14.49 15.69 14.83Q15.32 15.16 15.32 15.69L15.32 15.69L13.89 15.69Q13.89 15.03 14.24 14.49Q14.59 13.96 15.22 13.65Q15.84 13.35 16.61 13.35L16.61 13.35Q17.89 13.35 18.62 13.99Q19.35 14.63 19.35 15.78L19.35 15.78Q19.35 16.35 18.98 16.86Q18.62 17.37 18.04 17.62L18.04 17.62Q18.74 17.86 19.11 18.38Q19.47 18.89 19.47 19.61L19.47 19.61Q19.47 20.76 18.68 21.44Q17.90 22.12 16.61 22.12L16.61 22.12Q15.38 22.12 14.60 21.46Q13.81 20.80 13.81 19.71ZM23.77 18.51L23.77 18.51L23.77 17.03Q23.77 15.19 24.46 14.27Q25.15 13.35 26.56 13.35L26.56 13.35Q27.96 13.35 28.65 14.25Q29.34 15.14 29.36 16.93L29.36 16.93L29.36 18.41Q29.36 20.25 28.67 21.18Q27.98 22.12 26.57 22.12L26.57 22.12Q25.19 22.12 24.49 21.21Q23.79 20.29 23.77 18.51ZM25.19 16.68L25.19 18.61Q25.19 19.81 25.53 20.39Q25.86 20.98 26.57 20.98L26.57 20.98Q27.26 20.98 27.59 20.44Q27.92 19.90 27.93 18.74L27.93 18.74L27.93 16.81Q27.93 15.61 27.61 15.05Q27.28 14.49 26.56 14.49L26.56 14.49Q25.87 14.49 25.54 15.02Q25.21 15.55 25.19 16.68L25.19 16.68ZM33.55 15.53L33.55 15.53L33.55 15.11Q33.55 14.34 34.05 13.84Q34.54 13.35 35.35 13.35L35.35 13.35Q36.17 13.35 36.67 13.84Q37.16 14.34 37.16 15.14L37.16 15.14L37.16 15.56Q37.16 16.33 36.67 16.82Q36.17 17.31 35.36 17.31L35.36 17.31Q34.57 17.31 34.06 16.83Q33.55 16.35 33.55 15.53ZM34.54 15.13L34.54 15.56Q34.54 15.96 34.77 16.21Q34.99 16.46 35.36 16.46L35.36 16.46Q35.73 16.46 35.95 16.21Q36.17 15.96 36.17 15.54L36.17 15.54L36.17 15.11Q36.17 14.71 35.95 14.45Q35.72 14.20 35.35 14.20Q34.98 14.20 34.76 14.46Q34.54 14.71 34.54 15.13L34.54 15.13ZM35.66 21.36L34.92 20.94L39.09 14.27L39.82 14.69L35.66 21.36ZM37.65 20.34L37.65 20.34L37.65 19.91Q37.65 19.12 38.16 18.64Q38.67 18.15 39.46 18.15L39.46 18.15Q40.26 18.15 40.76 18.64Q41.27 19.12 41.27 19.95L41.27 19.95L41.27 20.37Q41.27 21.13 40.78 21.62Q40.29 22.12 39.47 22.12Q38.65 22.12 38.15 21.63Q37.65 21.14 37.65 20.34ZM38.64 19.93L38.64 20.37Q38.64 20.76 38.88 21.02Q39.11 21.27 39.47 21.27L39.47 21.27Q39.85 21.27 40.06 21.03Q40.27 20.79 40.27 20.35L40.27 20.35L40.27 19.91Q40.27 19.50 40.05 19.25Q39.82 19.01 39.46 19.01L39.46 19.01Q39.10 19.01 38.87 19.25Q38.64 19.50 38.64 19.93L38.64 19.93Z" fill="#FFFFFF"/><path class="svg__text" d="M67.06 21.24L67.06 21.24L67.84 19.49Q68.40 19.86 69.15 20.09Q69.89 20.32 70.61 20.32L70.61 20.32Q71.98 20.32 71.98 19.64L71.98 19.64Q71.98 19.28 71.59 19.11Q71.20 18.93 70.34 18.74L70.34 18.74Q69.39 18.53 68.75 18.30Q68.12 18.06 67.66 17.55Q67.21 17.03 67.21 16.16L67.21 16.16Q67.21 15.39 67.63 14.77Q68.05 14.15 68.88 13.79Q69.72 13.43 70.92 13.43L70.92 13.43Q71.75 13.43 72.56 13.62Q73.36 13.80 73.98 14.17L73.98 14.17L73.24 15.93Q72.04 15.28 70.91 15.28L70.91 15.28Q70.20 15.28 69.88 15.49Q69.56 15.70 69.56 16.04L69.56 16.04Q69.56 16.37 69.94 16.54Q70.33 16.71 71.18 16.89L71.18 16.89Q72.14 17.10 72.77 17.33Q73.40 17.56 73.86 18.07Q74.32 18.58 74.32 19.46L74.32 19.46Q74.32 20.21 73.90 20.83Q73.48 21.44 72.64 21.80Q71.80 22.17 70.60 22.17L70.60 22.17Q69.58 22.17 68.62 21.92Q67.66 21.67 67.06 21.24ZM80.69 15.48L78.11 15.48L78.11 13.60L85.63 13.60L85.63 15.48L83.06 15.48L83.06 22L80.69 22L80.69 15.48ZM89.57 17.80L89.57 17.80Q89.57 16.55 90.18 15.55Q90.78 14.56 91.84 14.00Q92.91 13.43 94.24 13.43L94.24 13.43Q95.57 13.43 96.63 14.00Q97.69 14.56 98.30 15.55Q98.91 16.55 98.91 17.80L98.91 17.80Q98.91 19.05 98.30 20.04Q97.69 21.04 96.63 21.60Q95.57 22.17 94.24 22.17L94.24 22.17Q92.91 22.17 91.84 21.60Q90.78 21.04 90.18 20.04Q89.57 19.05 89.57 17.80ZM91.97 17.80L91.97 17.80Q91.97 18.51 92.27 19.05Q92.57 19.60 93.09 19.90Q93.60 20.20 94.24 20.20L94.24 20.20Q94.88 20.20 95.39 19.90Q95.91 19.60 96.21 19.05Q96.51 18.51 96.51 17.80L96.51 17.80Q96.51 17.09 96.21 16.54Q95.91 16 95.39 15.70Q94.88 15.40 94.24 15.40L94.24 15.40Q93.60 15.40 93.09 15.70Q92.57 16 92.27 16.54Q91.97 17.09 91.97 17.80ZM110.02 22L103.64 22L103.64 13.60L106.02 13.60L106.02 20.11L110.02 20.11L110.02 22ZM121.19 22L114.44 22L114.44 13.60L121.03 13.60L121.03 15.44L116.80 15.44L116.80 16.85L120.53 16.85L120.53 18.63L116.80 18.63L116.80 20.17L121.19 20.17L121.19 22ZM128.32 22L125.99 22L125.99 13.60L127.95 13.60L131.66 18.07L131.66 13.60L133.98 13.60L133.98 22L132.03 22L128.32 17.52L128.32 22ZM145.69 17.80L145.69 17.80Q145.69 16.54 146.29 15.54Q146.88 14.55 147.94 13.99Q148.99 13.43 150.31 13.43L150.31 13.43Q151.46 13.43 152.38 13.84Q153.31 14.25 153.92 15.02L153.92 15.02L152.41 16.39Q151.60 15.40 150.43 15.40L150.43 15.40Q149.74 15.40 149.21 15.70Q148.68 16 148.38 16.54Q148.09 17.09 148.09 17.80L148.09 17.80Q148.09 18.51 148.38 19.05Q148.68 19.60 149.21 19.90Q149.74 20.20 150.43 20.20L150.43 20.20Q151.60 20.20 152.41 19.22L152.41 19.22L153.92 20.58Q153.31 21.35 152.39 21.76Q151.46 22.17 150.31 22.17L150.31 22.17Q148.99 22.17 147.94 21.61Q146.88 21.05 146.29 20.05Q145.69 19.06 145.69 17.80ZM158.03 17.80L158.03 17.80Q158.03 16.55 158.63 15.55Q159.24 14.56 160.30 14.00Q161.36 13.43 162.69 13.43L162.69 13.43Q164.02 13.43 165.09 14.00Q166.15 14.56 166.76 15.55Q167.36 16.55 167.36 17.80L167.36 17.80Q167.36 19.05 166.76 20.04Q166.15 21.04 165.09 21.60Q164.03 22.17 162.69 22.17L162.69 22.17Q161.36 22.17 160.30 21.60Q159.24 21.04 158.63 20.04Q158.03 19.05 158.03 17.80ZM160.43 17.80L160.43 17.80Q160.43 18.51 160.73 19.05Q161.03 19.60 161.54 19.90Q162.06 20.20 162.69 20.20L162.69 20.20Q163.33 20.20 163.85 19.90Q164.36 19.60 164.66 19.05Q164.96 18.51 164.96 17.80L164.96 17.80Q164.96 17.09 164.66 16.54Q164.36 16 163.85 15.70Q163.33 15.40 162.69 15.40L162.69 15.40Q162.05 15.40 161.54 15.70Q161.03 16 160.73 16.54Q160.43 17.09 160.43 17.80ZM176.06 22L172.09 22L172.09 13.60L176.06 13.60Q177.45 13.60 178.51 14.12Q179.58 14.63 180.17 15.58Q180.76 16.53 180.76 17.80L180.76 17.80Q180.76 19.07 180.17 20.02Q179.58 20.97 178.51 21.48Q177.45 22 176.06 22L176.06 22ZM174.47 15.50L174.47 20.10L175.97 20.10Q177.05 20.10 177.70 19.49Q178.35 18.88 178.35 17.80L178.35 17.80Q178.35 16.72 177.70 16.11Q177.05 15.50 175.97 15.50L175.97 15.50L174.47 15.50ZM192.23 22L185.49 22L185.49 13.60L192.08 13.60L192.08 15.44L187.84 15.44L187.84 16.85L191.57 16.85L191.57 18.63L187.84 18.63L187.84 20.17L192.23 20.17L192.23 22Z" fill="#FFFFFF" x="66.46000000000001"/></svg>